<mxfile host="app.diagrams.net" modified="2023-09-21T17:38:08.933Z" agent="Mozilla/5.0 (Macintosh; Intel Mac OS X 10_15_7) AppleWebKit/537.36 (KHTML, like Gecko) Chrome/116.0.0.0 Safari/537.36" etag="7zWn4MVGvqud985v9OLq" version="21.8.0" type="device">
  <diagram name="Page-1" id="87XT05EqjVDUML2y62Ps">
    <mxGraphModel dx="794" dy="429" grid="1" gridSize="10" guides="1" tooltips="1" connect="1" arrows="1" fold="1" page="1" pageScale="1" pageWidth="850" pageHeight="1100" math="0" shadow="0">
      <root>
        <mxCell id="0" />
        <mxCell id="1" parent="0" />
        <mxCell id="RSKqwk3IrHg5opxIXyG--1" value="psql_docker.sh" style="rounded=0;whiteSpace=wrap;html=1;" vertex="1" parent="1">
          <mxGeometry x="90" y="40" width="120" height="60" as="geometry" />
        </mxCell>
        <mxCell id="RSKqwk3IrHg5opxIXyG--2" value="host&lt;br&gt;host_usage" style="rounded=0;whiteSpace=wrap;html=1;" vertex="1" parent="1">
          <mxGeometry x="310" y="40" width="120" height="60" as="geometry" />
        </mxCell>
        <mxCell id="RSKqwk3IrHg5opxIXyG--3" value="host&lt;br&gt;host_agent" style="rounded=0;whiteSpace=wrap;html=1;" vertex="1" parent="1">
          <mxGeometry x="520" y="40" width="120" height="60" as="geometry" />
        </mxCell>
        <mxCell id="RSKqwk3IrHg5opxIXyG--4" value="&lt;br&gt;&lt;br&gt;Docker" style="whiteSpace=wrap;html=1;aspect=fixed;" vertex="1" parent="1">
          <mxGeometry x="310" y="200" width="200" height="200" as="geometry" />
        </mxCell>
        <mxCell id="RSKqwk3IrHg5opxIXyG--5" value="Container&lt;br&gt;host_agent" style="shape=cylinder3;whiteSpace=wrap;html=1;boundedLbl=1;backgroundOutline=1;size=15;" vertex="1" parent="1">
          <mxGeometry x="370" y="210" width="75" height="80" as="geometry" />
        </mxCell>
        <mxCell id="RSKqwk3IrHg5opxIXyG--8" value="" style="endArrow=classic;html=1;rounded=0;exitX=0.617;exitY=1;exitDx=0;exitDy=0;exitPerimeter=0;entryX=0;entryY=0;entryDx=0;entryDy=0;" edge="1" parent="1" source="RSKqwk3IrHg5opxIXyG--1" target="RSKqwk3IrHg5opxIXyG--4">
          <mxGeometry width="50" height="50" relative="1" as="geometry">
            <mxPoint x="180" y="150" as="sourcePoint" />
            <mxPoint x="310" y="190" as="targetPoint" />
          </mxGeometry>
        </mxCell>
        <mxCell id="RSKqwk3IrHg5opxIXyG--10" value="" style="endArrow=classic;html=1;rounded=0;exitX=0.617;exitY=1;exitDx=0;exitDy=0;exitPerimeter=0;" edge="1" parent="1" target="RSKqwk3IrHg5opxIXyG--4">
          <mxGeometry width="50" height="50" relative="1" as="geometry">
            <mxPoint x="340" y="100" as="sourcePoint" />
            <mxPoint x="486" y="224" as="targetPoint" />
          </mxGeometry>
        </mxCell>
        <mxCell id="RSKqwk3IrHg5opxIXyG--11" value="" style="endArrow=classic;html=1;rounded=0;exitX=0.5;exitY=1;exitDx=0;exitDy=0;" edge="1" parent="1" source="RSKqwk3IrHg5opxIXyG--3" target="RSKqwk3IrHg5opxIXyG--4">
          <mxGeometry width="50" height="50" relative="1" as="geometry">
            <mxPoint x="540" y="190" as="sourcePoint" />
            <mxPoint x="590" y="140" as="targetPoint" />
          </mxGeometry>
        </mxCell>
      </root>
    </mxGraphModel>
  </diagram>
</mxfile>
